<svg width="400" height="300" viewBox="0 0 400 300" fill="none" xmlns="http://www.w3.org/2000/svg">
  <style>
    .primary { fill: #3b82f6; }
    .secondary { fill: #f1f5f9; }
    .accent { fill: #8b5cf6; }
    .success { fill: #10b981; }
    .warning { fill: #f59e0b; }
    .dark .secondary { fill: #334155; }
    .text { fill: #475569; }
    .dark .text { fill: #cbd5e1; }
    .outline { stroke: #64748b; }
    .dark .outline { stroke: #94a3b8; }
    @media (prefers-color-scheme: dark) {
      .dark { display: block; }
      .light { display: none; }
    }
    @media (prefers-color-scheme: light) {
      .dark { display: none; }
      .light { display: block; }
    }
  </style>
  
  <!-- 배경 요소 -->
  <rect width="400" height="300" class="secondary" opacity="0.3"/>
  
  <!-- 도형 장식 -->
  <circle cx="50" cy="50" r="25" class="primary" opacity="0.5"/>
  <circle cx="350" cy="250" r="30" class="accent" opacity="0.5"/>
  <rect x="300" y="50" width="50" height="50" rx="10" class="warning" opacity="0.5"/>
  <rect x="50" y="200" width="40" height="40" rx="8" class="success" opacity="0.5"/>
  
  <!-- 학습 시작 그래픽 -->
  <g transform="translate(120, 40)">
    <!-- 노트북 -->
    <rect x="30" y="80" width="140" height="90" rx="5" fill="#334155"/>
    <rect x="35" y="85" width="130" height="80" fill="#f8fafc"/>
    <path d="M10,170 L190,170 C195,170 200,175 200,180 L200,185 C200,190 195,190 190,190 L10,190 C5,190 0,190 0,185 L0,180 C0,175 5,170 10,170 Z" fill="#334155"/>
    
    <!-- 화면의 콘텐츠 -->
    <rect x="50" y="95" width="100" height="10" rx="2" class="text" opacity="0.7"/>
    <rect x="50" y="115" width="80" height="8" rx="2" class="text" opacity="0.5"/>
    <rect x="50" y="130" width="90" height="8" rx="2" class="text" opacity="0.5"/>
    <rect x="50" y="145" width="70" height="8" rx="2" class="text" opacity="0.5"/>
    
    <!-- 학습 그래프 -->
    <rect x="140" y="115" width="15" height="35" rx="2" class="primary" opacity="0.8"/>
    <rect x="155" y="125" width="15" height="25" rx="2" class="primary" opacity="0.9"/>
    <rect x="170" y="105" width="15" height="45" rx="2" class="primary"/>
    
    <!-- 스터디 노트 -->
    <rect x="-20" y="100" width="40" height="60" rx="3" fill="#ffffff" stroke="#e2e8f0" stroke-width="2" transform="rotate(-10 -20 100)"/>
    <line x1="-15" y1="110" x2="15" y2="105" stroke="#94a3b8" stroke-width="1" transform="rotate(-10 -20 100)"/>
    <line x1="-17" y1="120" x2="13" y2="115" stroke="#94a3b8" stroke-width="1" transform="rotate(-10 -20 100)"/>
    <line x1="-18" y1="130" x2="12" y2="125" stroke="#94a3b8" stroke-width="1" transform="rotate(-10 -20 100)"/>
    <line x1="-19" y1="140" x2="11" y2="135" stroke="#94a3b8" stroke-width="1" transform="rotate(-10 -20 100)"/>
    
    <!-- 연필 -->
    <line x1="-25" y1="160" x2="5" y2="140" stroke="#f59e0b" stroke-width="3" stroke-linecap="round" transform="rotate(-10 -25 160)"/>
    <path d="M-30,165 L-25,160 L-22,164 Z" fill="#64748b" transform="rotate(-10 -25 160)"/>
    
    <!-- 책 -->
    <rect x="200" y="130" width="50" height="45" rx="2" fill="#3b82f6" opacity="0.8"/>
    <rect x="200" y="130" width="50" height="5" rx="2 2 0 0" fill="#2563eb"/>
    <line x1="205" y1="140" x2="245" y2="140" stroke="white" stroke-width="1" stroke-dasharray="2 1"/>
    <line x1="205" y1="150" x2="245" y2="150" stroke="white" stroke-width="1" stroke-dasharray="2 1"/>
    <line x1="205" y1="160" x2="245" y2="160" stroke="white" stroke-width="1" stroke-dasharray="2 1"/>
    
    <!-- 커피 컵 -->
    <path d="M220,70 C220,65 225,65 230,65 L250,65 C255,65 260,65 260,70 L255,90 C255,95 240,95 240,95 C240,95 225,95 225,90 Z" fill="#f8fafc" stroke="#64748b" stroke-width="1"/>
    <path d="M260,75 L270,75 C275,75 275,80 273,85 L271,90 C269,95 265,95 260,92" stroke="#64748b" stroke-width="1"/>
    <path d="M230,65 L250,65 L250,60 C250,55 230,55 230,60 Z" fill="#ea580c" opacity="0.8"/>
  </g>
  
  <!-- 화살표 장식 -->
  <path d="M320,100 L340,120 L320,140" stroke="#3b82f6" stroke-width="4" stroke-linecap="round" stroke-linejoin="round" opacity="0.7"/>
  <path d="M80,80 L60,100 L80,120" stroke="#8b5cf6" stroke-width="4" stroke-linecap="round" stroke-linejoin="round" opacity="0.7"/>
  
  <!-- 별 장식 요소 -->
  <path d="M330,70 L335,80 L345,82 L337.5,90 L339,100 L330,95 L321,100 L322.5,90 L315,82 L325,80 Z" class="warning" opacity="0.9"/>
  <path d="M70,140 L73,147 L80,148 L75,154 L76,161 L70,157.5 L64,161 L65,154 L60,148 L67,147 Z" class="success" opacity="0.9"/>
  <path d="M200,280 L205,290 L215,292 L207.5,300 L209,310 L200,305 L191,310 L192.5,300 L185,292 L195,290 Z" class="primary" opacity="0.9"/>
</svg> 