<svg width="240" height="200" viewBox="0 0 240 200" fill="none" xmlns="http://www.w3.org/2000/svg">
  <style>
    .primary { fill: #3b82f6; }
    .secondary { fill: #f1f5f9; }
    .accent { fill: #8b5cf6; }
    .dark .secondary { fill: #334155; }
    .text { fill: #475569; }
    .dark .text { fill: #cbd5e1; }
    .outline { stroke: #64748b; }
    .dark .outline { stroke: #94a3b8; }
    @media (prefers-color-scheme: dark) {
      .dark { display: block; }
      .light { display: none; }
    }
    @media (prefers-color-scheme: light) {
      .dark { display: none; }
      .light { display: block; }
    }
  </style>
  
  <!-- 배경 -->
  <rect x="20" y="20" width="200" height="160" rx="12" class="secondary" opacity="0.7"/>
  
  <!-- 문서 스택 -->
  <rect x="50" y="45" width="140" height="110" rx="4" fill="#f8fafc" class="outline" stroke-width="2"/>
  <rect x="60" y="35" width="140" height="110" rx="4" fill="#f1f5f9" class="outline" stroke-width="2"/>
  <rect x="70" y="25" width="140" height="110" rx="4" fill="#ffffff" class="outline" stroke-width="2"/>
  
  <!-- 문서 내용 -->
  <rect x="90" y="45" width="100" height="8" rx="2" class="text" opacity="0.8"/>
  <rect x="90" y="60" width="80" height="8" rx="2" class="text" opacity="0.8"/>
  <rect x="90" y="75" width="90" height="8" rx="2" class="text" opacity="0.8"/>
  <rect x="90" y="90" width="70" height="8" rx="2" class="text" opacity="0.8"/>
  
  <!-- 업로드 아이콘 -->
  <circle cx="120" cy="130" r="30" class="primary" opacity="0.9"/>
  <path d="M120,110 L120,140" stroke="white" stroke-width="4" stroke-linecap="round"/>
  <path d="M105,125 L120,110 L135,125" stroke="white" stroke-width="4" stroke-linecap="round" stroke-linejoin="round"/>
  
  <!-- 장식 요소 -->
  <circle cx="40" cy="40" r="8" class="primary" opacity="0.5"/>
  <circle cx="200" cy="160" r="10" class="accent" opacity="0.5"/>
  <circle cx="190" cy="40" r="6" class="accent" opacity="0.5"/>
  
  <!-- PDF 아이콘 -->
  <rect x="40" y="140" width="30" height="40" rx="2" fill="#ef4444" opacity="0.8" transform="rotate(-15 40 140)"/>
  <rect x="45" y="150" width="20" height="4" rx="1" fill="white" opacity="0.9" transform="rotate(-15 45 150)"/>
  <rect x="45" y="158" width="16" height="4" rx="1" fill="white" opacity="0.9" transform="rotate(-15 45 158)"/>
  <rect x="45" y="166" width="12" height="4" rx="1" fill="white" opacity="0.9" transform="rotate(-15 45 166)"/>
  
  <!-- DOC 아이콘 -->
  <rect x="190" y="150" width="30" height="40" rx="2" fill="#2563eb" opacity="0.8" transform="rotate(10 190 150)"/>
  <rect x="195" y="160" width="20" height="4" rx="1" fill="white" opacity="0.9" transform="rotate(10 195 160)"/>
  <rect x="195" y="168" width="16" height="4" rx="1" fill="white" opacity="0.9" transform="rotate(10 195 168)"/>
  <rect x="195" y="176" width="12" height="4" rx="1" fill="white" opacity="0.9" transform="rotate(10 195 176)"/>
</svg> 