<svg width="240" height="200" viewBox="0 0 240 200" fill="none" xmlns="http://www.w3.org/2000/svg">
  <style>
    .primary { fill: #3b82f6; }
    .secondary { fill: #f1f5f9; }
    .accent { fill: #8b5cf6; }
    .warning { fill: #f59e0b; }
    .success { fill: #10b981; }
    .danger { fill: #ef4444; }
    .dark .secondary { fill: #334155; }
    .text { fill: #475569; }
    .dark .text { fill: #cbd5e1; }
    .outline { stroke: #64748b; }
    .dark .outline { stroke: #94a3b8; }
    @media (prefers-color-scheme: dark) {
      .dark { display: block; }
      .light { display: none; }
    }
    @media (prefers-color-scheme: light) {
      .dark { display: none; }
      .light { display: block; }
    }
  </style>
  
  <!-- 배경 -->
  <rect x="20" y="20" width="200" height="160" rx="12" class="secondary" opacity="0.7"/>
  
  <!-- 달력 배경 -->
  <rect x="40" y="40" width="160" height="120" rx="8" fill="white" stroke="#e2e8f0" stroke-width="2"/>
  
  <!-- 달력 헤더 -->
  <rect x="40" y="40" width="160" height="25" rx="8 8 0 0" class="primary" opacity="0.9"/>
  
  <!-- 요일 표시 -->
  <circle cx="57" cy="52.5" r="6" fill="white" opacity="0.9"/>
  <circle cx="82" cy="52.5" r="6" fill="white" opacity="0.9"/>
  <circle cx="107" cy="52.5" r="6" fill="white" opacity="0.9"/>
  <circle cx="132" cy="52.5" r="6" fill="white" opacity="0.9"/>
  <circle cx="157" cy="52.5" r="6" fill="white" opacity="0.9"/>
  <circle cx="182" cy="52.5" r="6" fill="white" opacity="0.9"/>
  
  <!-- 달력 격자 -->
  <line x1="40" y1="65" x2="200" y2="65" stroke="#e2e8f0" stroke-width="1"/>
  <line x1="40" y1="85" x2="200" y2="85" stroke="#e2e8f0" stroke-width="1"/>
  <line x1="40" y1="105" x2="200" y2="105" stroke="#e2e8f0" stroke-width="1"/>
  <line x1="40" y1="125" x2="200" y2="125" stroke="#e2e8f0" stroke-width="1"/>
  
  <line x1="70" y1="65" x2="70" y2="160" stroke="#e2e8f0" stroke-width="1"/>
  <line x1="95" y1="65" x2="95" y2="160" stroke="#e2e8f0" stroke-width="1"/>
  <line x1="120" y1="65" x2="120" y2="160" stroke="#e2e8f0" stroke-width="1"/>
  <line x1="145" y1="65" x2="145" y2="160" stroke="#e2e8f0" stroke-width="1"/>
  <line x1="170" y1="65" x2="170" y2="160" stroke="#e2e8f0" stroke-width="1"/>
  
  <!-- 날짜 숫자 -->
  <text x="55" y="77" font-size="10" text-anchor="middle" class="text">1</text>
  <text x="80" y="77" font-size="10" text-anchor="middle" class="text">2</text>
  <text x="105" y="77" font-size="10" text-anchor="middle" class="text">3</text>
  <text x="130" y="77" font-size="10" text-anchor="middle" class="text">4</text>
  <text x="155" y="77" font-size="10" text-anchor="middle" class="text">5</text>
  <text x="180" y="77" font-size="10" text-anchor="middle" class="text">6</text>
  
  <text x="55" y="97" font-size="10" text-anchor="middle" class="text">7</text>
  <text x="80" y="97" font-size="10" text-anchor="middle" class="text">8</text>
  <text x="105" y="97" font-size="10" text-anchor="middle" class="text">9</text>
  <text x="130" y="97" font-size="10" text-anchor="middle" class="text">10</text>
  <text x="155" y="97" font-size="10" text-anchor="middle" class="text">11</text>
  <text x="180" y="97" font-size="10" text-anchor="middle" class="text">12</text>
  
  <text x="55" y="117" font-size="10" text-anchor="middle" class="text">13</text>
  <text x="80" y="117" font-size="10" text-anchor="middle" class="text">14</text>
  <text x="105" y="117" font-size="10" text-anchor="middle" class="text">15</text>
  <circle cx="130" cy="115" r="8" class="primary" opacity="0.2"/>
  <text x="130" y="117" font-size="10" text-anchor="middle" class="text" font-weight="bold">16</text>
  <text x="155" y="117" font-size="10" text-anchor="middle" class="text">17</text>
  <text x="180" y="117" font-size="10" text-anchor="middle" class="text">18</text>
  
  <text x="55" y="137" font-size="10" text-anchor="middle" class="text">19</text>
  <text x="80" y="137" font-size="10" text-anchor="middle" class="text">20</text>
  <text x="105" y="137" font-size="10" text-anchor="middle" class="text">21</text>
  <text x="130" y="137" font-size="10" text-anchor="middle" class="text">22</text>
  <text x="155" y="137" font-size="10" text-anchor="middle" class="text">23</text>
  <text x="180" y="137" font-size="10" text-anchor="middle" class="text">24</text>
  
  <text x="55" y="157" font-size="10" text-anchor="middle" class="text">25</text>
  <text x="80" y="157" font-size="10" text-anchor="middle" class="text">26</text>
  <text x="105" y="157" font-size="10" text-anchor="middle" class="text">27</text>
  <text x="130" y="157" font-size="10" text-anchor="middle" class="text">28</text>
  <text x="155" y="157" font-size="10" text-anchor="middle" class="text">29</text>
  <text x="180" y="157" font-size="10" text-anchor="middle" class="text">30</text>
  
  <!-- 일정 표시 -->
  <rect x="71" y="79" width="46" height="12" rx="2" class="success" opacity="0.7"/>
  <rect x="121" y="79" width="22" height="12" rx="2" class="warning" opacity="0.7"/>
  <rect x="131" y="95" width="36" height="12" rx="2" class="danger" opacity="0.7"/>
  <rect x="46" y="119" width="22" height="12" rx="2" class="accent" opacity="0.7"/>
  <rect x="96" y="139" width="46" height="12" rx="2" class="primary" opacity="0.7"/>
  
  <!-- 알림 아이콘 -->
  <circle cx="195" cy="35" r="8" class="danger" opacity="0.9"/>
  <text x="195" y="38" font-size="10" text-anchor="middle" fill="white" font-weight="bold">3</text>
  
  <!-- 시계 아이콘 -->
  <circle cx="30" cy="30" r="8" fill="none" class="outline" stroke-width="1.5"/>
  <line x1="30" y1="30" x2="30" y2="25" class="outline" stroke-width="1.5" stroke-linecap="round"/>
  <line x1="30" y1="30" x2="33" y2="30" class="outline" stroke-width="1.5" stroke-linecap="round"/>
</svg> 