<svg width="240" height="200" viewBox="0 0 240 200" fill="none" xmlns="http://www.w3.org/2000/svg">
  <style>
    .primary { fill: #3b82f6; }
    .secondary { fill: #f1f5f9; }
    .accent { fill: #8b5cf6; }
    .success { fill: #10b981; }
    .warning { fill: #f59e0b; }
    .dark .secondary { fill: #334155; }
    .text { fill: #475569; }
    .dark .text { fill: #cbd5e1; }
    .outline { stroke: #64748b; }
    .dark .outline { stroke: #94a3b8; }
    @media (prefers-color-scheme: dark) {
      .dark { display: block; }
      .light { display: none; }
    }
    @media (prefers-color-scheme: light) {
      .dark { display: none; }
      .light { display: block; }
    }
  </style>
  
  <!-- 배경 -->
  <rect x="20" y="20" width="200" height="160" rx="12" class="secondary" opacity="0.7"/>
  
  <!-- 그래프 영역 -->
  <rect x="40" y="40" width="160" height="120" rx="6" fill="#ffffff" stroke="#e2e8f0" stroke-width="2"/>
  
  <!-- 좌표축 -->
  <line x1="55" y1="140" x2="185" y2="140" stroke="#94a3b8" stroke-width="2"/>
  <line x1="55" y1="140" x2="55" y2="50" stroke="#94a3b8" stroke-width="2"/>
  
  <!-- 막대 그래프 -->
  <rect x="70" y="100" width="15" height="40" rx="2" class="primary" opacity="0.7"/>
  <rect x="95" y="90" width="15" height="50" rx="2" class="primary" opacity="0.8"/>
  <rect x="120" y="70" width="15" height="70" rx="2" class="primary" opacity="0.9"/>
  <rect x="145" y="85" width="15" height="55" rx="2" class="primary" opacity="0.8"/>
  <rect x="170" y="60" width="15" height="80" rx="2" class="primary"/>
  
  <!-- 점선 그래프 -->
  <path d="M70,110 L95,85 L120,65 L145,80 L170,55" stroke="#8b5cf6" stroke-width="3" stroke-dasharray="2,2" stroke-linecap="round" stroke-linejoin="round"/>
  
  <!-- 데이터 포인트 -->
  <circle cx="70" cy="110" r="4" class="accent"/>
  <circle cx="95" cy="85" r="4" class="accent"/>
  <circle cx="120" cy="65" r="4" class="accent"/>
  <circle cx="145" cy="80" r="4" class="accent"/>
  <circle cx="170" cy="55" r="4" class="accent"/>
  
  <!-- 통계 아이콘 -->
  <circle cx="45" cy="30" r="8" class="success" opacity="0.7"/>
  <path d="M43,30 L45,27 L47,30" stroke="white" stroke-width="1.5" stroke-linecap="round" stroke-linejoin="round"/>
  
  <circle cx="190" cy="30" r="8" class="warning" opacity="0.7"/>
  <path d="M190,28 L190,32 M190,34 L190,34.1" stroke="white" stroke-width="1.5" stroke-linecap="round"/>
  
  <!-- 장식 요소 -->
  <rect x="30" y="160" width="40" height="6" rx="3" class="text" opacity="0.3"/>
  <rect x="80" y="160" width="40" height="6" rx="3" class="text" opacity="0.3"/>
  <rect x="130" y="160" width="40" height="6" rx="3" class="text" opacity="0.3"/>
  <rect x="180" y="160" width="25" height="6" rx="3" class="text" opacity="0.3"/>
  
  <!-- Y축 눈금 -->
  <line x1="52" y1="120" x2="55" y2="120" stroke="#94a3b8" stroke-width="1"/>
  <line x1="52" y1="100" x2="55" y2="100" stroke="#94a3b8" stroke-width="1"/>
  <line x1="52" y1="80" x2="55" y2="80" stroke="#94a3b8" stroke-width="1"/>
  <line x1="52" y1="60" x2="55" y2="60" stroke="#94a3b8" stroke-width="1"/>
  
  <!-- 확대 렌즈 아이콘 -->
  <circle cx="200" cy="150" r="15" fill="white" stroke="#64748b" stroke-width="2" opacity="0.9"/>
  <circle cx="200" cy="150" r="8" fill="none" stroke="#64748b" stroke-width="2" opacity="0.9"/>
  <line x1="190" y1="155" x2="185" y2="160" stroke="#64748b" stroke-width="2" opacity="0.9"/>
</svg> 