<svg width="120" height="120" viewBox="0 0 120 120" fill="none" xmlns="http://www.w3.org/2000/svg">
  <style>
    .primary { fill: #3b82f6; }
    .secondary { fill: #f1f5f9; }
    .accent { fill: #8b5cf6; }
    .warning { fill: #f59e0b; }
    .dark .secondary { fill: #334155; }
    @media (prefers-color-scheme: dark) {
      .dark { display: block; }
      .light { display: none; }
    }
    @media (prefers-color-scheme: light) {
      .dark { display: none; }
      .light { display: block; }
    }
  </style>
  
  <!-- 배경 원 -->
  <circle cx="60" cy="60" r="60" class="secondary" opacity="0.5"/>
  <circle cx="60" cy="60" r="55" class="secondary" opacity="0.7"/>
  
  <!-- 테두리 -->
  <circle cx="60" cy="60" r="52" fill="none" stroke="#f59e0b" stroke-width="2" stroke-dasharray="4,2"/>
  
  <!-- 얼굴 -->
  <circle cx="60" cy="55" r="30" fill="#f8fafc"/>
  
  <!-- 머리카락 - 포니테일 -->
  <path d="M60,25 C75,25 85,35 85,50 C85,53 84,56 83,58 C73,55 72,45 70,40 C68,35 67,30 60,30 C53,30 52,35 50,40 C48,45 47,55 37,58 C36,56 35,53 35,50 C35,35 45,25 60,25 Z" fill="#713f12"/>
  <path d="M60,23 C45,23 30,32 28,55 C32,58 40,58 45,55 C50,52 55,45 60,45 C65,45 70,52 75,55 C80,58 88,58 92,55 C90,32 75,23 60,23 Z" fill="#713f12"/>
  <path d="M60,20 C40,20 30,40 30,55 C30,60 31,65 32,70 C40,65 45,55 45,45 C45,40 48,38 60,38 C72,38 75,40 75,45 C75,55 80,65 88,70 C89,65 90,60 90,55 C90,40 80,20 60,20 Z" fill="#854d0e"/>
  <ellipse cx="60" cy="15" rx="6" ry="10" transform="rotate(-10 60 15)" fill="#854d0e"/>
  
  <!-- 눈 -->
  <ellipse cx="50" cy="52" rx="4" ry="5" fill="#1e293b"/>
  <ellipse cx="70" cy="52" rx="4" ry="5" fill="#1e293b"/>
  <circle cx="48" cy="51" r="1" fill="white"/>
  <circle cx="68" cy="51" r="1" fill="white"/>
  
  <!-- 눈썹 -->
  <path d="M45,44 C48,42 52,42 55,44" stroke="#713f12" stroke-width="1.5" stroke-linecap="round"/>
  <path d="M65,44 C68,42 72,42 75,44" stroke="#713f12" stroke-width="1.5" stroke-linecap="round"/>
  
  <!-- 입 -->
  <path d="M54,65 C57,68 63,68 66,65" fill="none" stroke="#475569" stroke-width="1.5" stroke-linecap="round"/>
  
  <!-- 귀 -->
  <path d="M30,55 C30,53 31,50 33,48 L31,56 Z" fill="#f8fafc"/>
  <path d="M90,55 C90,53 89,50 87,48 L89,56 Z" fill="#f8fafc"/>
  
  <!-- 귀걸이 -->
  <circle cx="30" cy="56" r="2" class="warning"/>
  <circle cx="90" cy="56" r="2" class="warning"/>
  
  <!-- 옷 -->
  <path d="M30,90 C30,77 43,70 60,70 C77,70 90,77 90,90 C90,103 77,110 60,110 C43,110 30,103 30,90 Z" class="warning" opacity="0.8"/>
  
  <!-- 목걸이 -->
  <path d="M50,75 C53,80 67,80 70,75" stroke="white" stroke-width="2" stroke-linecap="round"/>
  <circle cx="60" cy="83" r="3" fill="white"/>
  
  <!-- 장식 요소 -->
  <circle cx="25" cy="25" r="5" class="warning" opacity="0.5"/>
  <circle cx="95" cy="95" r="5" class="warning" opacity="0.5"/>
  <circle cx="25" cy="95" r="3" class="primary" opacity="0.5"/>
  <circle cx="95" cy="25" r="3" class="primary" opacity="0.5"/>
  
  <!-- 볼터치 -->
  <circle cx="45" cy="60" r="5" fill="#fdba74" opacity="0.3"/>
  <circle cx="75" cy="60" r="5" fill="#fdba74" opacity="0.3"/>
</svg>