<svg width="120" height="120" viewBox="0 0 120 120" fill="none" xmlns="http://www.w3.org/2000/svg">
  <style>
    .primary { fill: #3b82f6; }
    .secondary { fill: #f1f5f9; }
    .accent { fill: #8b5cf6; }
    .dark .secondary { fill: #334155; }
    @media (prefers-color-scheme: dark) {
      .dark { display: block; }
      .light { display: none; }
    }
    @media (prefers-color-scheme: light) {
      .dark { display: none; }
      .light { display: block; }
    }
  </style>
  
  <!-- 배경 원 -->
  <circle cx="60" cy="60" r="60" class="secondary" opacity="0.5"/>
  <circle cx="60" cy="60" r="55" class="secondary" opacity="0.7"/>
  
  <!-- 테두리 -->
  <circle cx="60" cy="60" r="52" fill="none" stroke="#3b82f6" stroke-width="2" stroke-dasharray="4,2"/>
  
  <!-- 얼굴 -->
  <circle cx="60" cy="55" r="30" fill="#f8fafc"/>
  
  <!-- 머리카락 -->
  <path d="M30,55 C30,35 45,25 60,25 C75,25 90,35 90,55 C90,60 89,65 87,70 L85,70 C87,65 88,60 88,55 C88,36 75,27 60,27 C45,27 32,36 32,55 C32,60 33,65 35,70 L33,70 C31,65 30,60 30,55 Z" fill="#6b7280"/>
  <path d="M60,25 C75,25 90,35 90,55 C90,57 89.8,59 89.4,61 C80,59 70,50 70,35 C70,30 68,30 60,30 C52,30 50,30 50,35 C50,50 40,59 30.6,61 C30.2,59 30,57 30,55 C30,35 45,25 60,25 Z" fill="#6b7280"/>
  
  <!-- 눈 -->
  <ellipse cx="50" cy="52" rx="4" ry="5" fill="#1e293b"/>
  <ellipse cx="70" cy="52" rx="4" ry="5" fill="#1e293b"/>
  
  <!-- 눈썹 -->
  <path d="M46,44 C48,42 52,42 54,44" stroke="#475569" stroke-width="1.5" stroke-linecap="round"/>
  <path d="M66,44 C68,42 72,42 74,44" stroke="#475569" stroke-width="1.5" stroke-linecap="round"/>
  
  <!-- 입 -->
  <path d="M52,70 C56,73 64,73 68,70" stroke="#475569" stroke-width="1.5" stroke-linecap="round"/>
  
  <!-- 귀 -->
  <path d="M30,55 C30,53 31,50 33,48 L31,56 Z" fill="#f8fafc"/>
  <path d="M90,55 C90,53 89,50 87,48 L89,56 Z" fill="#f8fafc"/>
  
  <!-- 옷 -->
  <path d="M30,90 C30,77 43,70 60,70 C77,70 90,77 90,90 C90,103 77,110 60,110 C43,110 30,103 30,90 Z" class="primary" opacity="0.8"/>
  
  <!-- 목걸이 -->
  <path d="M50,75 C53,80 67,80 70,75" stroke="white" stroke-width="2" stroke-linecap="round"/>
  <circle cx="60" cy="80" r="2" fill="white"/>
  
  <!-- 장식 요소 -->
  <circle cx="25" cy="25" r="5" class="accent" opacity="0.5"/>
  <circle cx="95" cy="95" r="5" class="accent" opacity="0.5"/>
  <circle cx="25" cy="95" r="3" class="primary" opacity="0.5"/>
  <circle cx="95" cy="25" r="3" class="primary" opacity="0.5"/>
</svg> 