<svg width="120" height="120" viewBox="0 0 120 120" fill="none" xmlns="http://www.w3.org/2000/svg">
  <style>
    .primary { fill: #3b82f6; }
    .secondary { fill: #f1f5f9; }
    .accent { fill: #8b5cf6; }
    .success { fill: #10b981; }
    .dark .secondary { fill: #334155; }
    @media (prefers-color-scheme: dark) {
      .dark { display: block; }
      .light { display: none; }
    }
    @media (prefers-color-scheme: light) {
      .dark { display: none; }
      .light { display: block; }
    }
  </style>
  
  <!-- 배경 원 -->
  <circle cx="60" cy="60" r="60" class="secondary" opacity="0.5"/>
  <circle cx="60" cy="60" r="55" class="secondary" opacity="0.7"/>
  
  <!-- 테두리 -->
  <circle cx="60" cy="60" r="52" fill="none" stroke="#10b981" stroke-width="2" stroke-dasharray="4,2"/>
  
  <!-- 얼굴 -->
  <circle cx="60" cy="55" r="30" fill="#f8fafc"/>
  
  <!-- 안경 -->
  <circle cx="50" cy="52" r="8" fill="none" stroke="#64748b" stroke-width="1.5"/>
  <circle cx="70" cy="52" r="8" fill="none" stroke="#64748b" stroke-width="1.5"/>
  <line x1="58" y1="52" x2="62" y2="52" stroke="#64748b" stroke-width="1.5"/>
  <line x1="42" y1="52" x2="39" y2="48" stroke="#64748b" stroke-width="1.5"/>
  <line x1="78" y1="52" x2="81" y2="48" stroke="#64748b" stroke-width="1.5"/>
  
  <!-- 눈 -->
  <ellipse cx="50" cy="52" rx="3" ry="4" fill="#1e293b"/>
  <ellipse cx="70" cy="52" rx="3" ry="4" fill="#1e293b"/>
  
  <!-- 눈썹 -->
  <path d="M44,42 C46,40 50,40 56,42" stroke="#475569" stroke-width="1.5" stroke-linecap="round"/>
  <path d="M64,42 C70,40 74,40 76,42" stroke="#475569" stroke-width="1.5" stroke-linecap="round"/>
  
  <!-- 입 -->
  <path d="M52,68 C56,72 64,72 68,68" stroke="#475569" stroke-width="1.5" stroke-linecap="round"/>
  
  <!-- 머리카락 -->
  <path d="M30,40 C35,25 50,20 60,20 C70,20 85,25 90,40 C92,45 92,50 92,55 L90,55 C90,50 90,45 88,41 C84,27 70,22 60,22 C50,22 36,27 32,41 C30,45 30,50 30,55 L28,55 C28,50 28,45 30,40Z" fill="#94a3b8"/>
  
  <!-- 옷 -->
  <path d="M30,90 C30,77 43,70 60,70 C77,70 90,77 90,90 C90,103 77,110 60,110 C43,110 30,103 30,90 Z" class="success" opacity="0.8"/>
  
  <!-- 넥타이 -->
  <path d="M60,75 L55,85 L60,105 L65,85 Z" fill="#0284c7"/>
  
  <!-- 귀 -->
  <path d="M30,55 C30,53 31,50 33,48 L31,56 Z" fill="#f8fafc"/>
  <path d="M90,55 C90,53 89,50 87,48 L89,56 Z" fill="#f8fafc"/>
  
  <!-- 장식 요소 -->
  <circle cx="25" cy="25" r="5" class="success" opacity="0.5"/>
  <circle cx="95" cy="95" r="5" class="success" opacity="0.5"/>
  <circle cx="25" cy="95" r="3" class="primary" opacity="0.5"/>
  <circle cx="95" cy="25" r="3" class="primary" opacity="0.5"/>
  
  <!-- 턱수염 -->
  <path d="M50,65 C55,67 65,67 70,65 L68,75 C63,77 57,77 52,75 Z" fill="#94a3b8" opacity="0.6"/>
</svg> 